<svg width="100" height="100" viewBox="0 0 100 100" fill="none" xmlns="http://www.w3.org/2000/svg">
<rect x="8.5" y="8.5" width="84" height="84" rx="24.5" fill="url(#paint0_diamond)" stroke="white"/>
<path d="M55.1274 57.6504C55.1274 56.4053 54.7319 55.3799 53.9409 54.5742C53.1499 53.7539 51.8315 53.0215 49.9858 52.377C48.1401 51.7178 46.7046 51.1099 45.6792 50.5532C42.2661 48.7222 40.5596 46.0122 40.5596 42.4233C40.5596 39.9917 41.2993 37.9922 42.7788 36.4248C44.2583 34.8574 46.2651 33.9272 48.7993 33.6343V28.8442H52.3149V33.6782C54.8638 34.0444 56.834 35.1284 58.2256 36.9302C59.6172 38.7173 60.313 41.0464 60.313 43.9175H54.9956C54.9956 42.0718 54.5781 40.6216 53.7432 39.5669C52.9229 38.4976 51.8022 37.9629 50.3813 37.9629C48.9751 37.9629 47.8765 38.3438 47.0854 39.1055C46.2944 39.8672 45.8989 40.9585 45.8989 42.3794C45.8989 43.6538 46.2871 44.6792 47.0635 45.4556C47.8545 46.2173 49.1875 46.9424 51.0625 47.6309C52.9375 48.3193 54.4097 48.9565 55.479 49.5425C56.5483 50.1284 57.4492 50.8022 58.1816 51.564C58.9141 52.311 59.478 53.1753 59.8735 54.1567C60.269 55.1382 60.4668 56.2881 60.4668 57.6064C60.4668 60.082 59.7051 62.0889 58.1816 63.627C56.6729 65.165 54.5635 66.0732 51.8535 66.3516V70.6362H48.3599V66.3735C45.4595 66.0513 43.2256 65.0112 41.6582 63.2534C40.1055 61.4956 39.3291 59.1665 39.3291 56.2661H44.6685C44.6685 58.1118 45.1299 59.54 46.0527 60.5508C46.9902 61.5615 48.3086 62.0669 50.0078 62.0669C51.6777 62.0669 52.9448 61.6641 53.8091 60.8584C54.688 60.0527 55.1274 58.9834 55.1274 57.6504Z" fill="white"/>
<defs>
<radialGradient id="paint0_diamond" cx="0" cy="0" r="1" gradientUnits="userSpaceOnUse" gradientTransform="translate(8 8) rotate(45) scale(120.208 776.967)">
<stop offset="0.00520833" stop-color="#D61665"/>
<stop offset="1" stop-color="#E074A0"/>
</radialGradient>
</defs>
</svg>
