<svg width="100" height="100" viewBox="0 0 100 100" fill="none" xmlns="http://www.w3.org/2000/svg">
<rect x="8.5" y="8.5" width="84" height="84" rx="24.5" fill="url(#paint0_diamond)" stroke="white"/>
<mask id="path-2-inside-1" fill="white">
<path fill-rule="evenodd" clip-rule="evenodd" d="M43.8749 35C47.7098 35 51.1014 36.8977 53.1619 39.8051C54.3792 39.2869 55.7186 39.0001 57.1251 39.0001C62.6958 39.0001 67.2158 43.499 67.2499 49.0618C67.5775 49.0209 67.9113 48.9999 68.2499 48.9999C72.6682 48.9999 76.2499 52.5816 76.2499 56.9999C76.2499 61.1652 73.0666 64.5871 69 64.9652V65.0001H31.5V64.9845C27.3146 64.7264 24 61.2502 24 56.9999C24 52.5816 27.5817 48.9999 32 48.9999C32.2748 48.9999 32.5464 49.0137 32.814 49.0408C32.6087 48.1857 32.4999 47.2931 32.4999 46.375C32.4999 40.0928 37.5927 35 43.8749 35Z"/>
</mask>
<path d="M53.1619 39.8051L50.3064 41.8289L51.9375 44.1305L54.533 43.0254L53.1619 39.8051ZM67.2499 49.0618L63.7499 49.0832L63.7741 53.0224L67.683 52.5349L67.2499 49.0618ZM69 64.9652L68.676 61.4802L65.5 61.7755V64.9652H69ZM69 65.0001V68.5001H72.5V65.0001H69ZM31.5 65.0001H28V68.5001H31.5V65.0001ZM31.5 64.9845H35V61.6937L31.7154 61.4911L31.5 64.9845ZM32.814 49.0408L32.4621 52.523L37.3688 53.0189L36.2173 48.2235L32.814 49.0408ZM56.0175 37.7814C53.3289 33.9877 48.8925 31.5 43.8749 31.5V38.5C46.527 38.5 48.8738 39.8076 50.3064 41.8289L56.0175 37.7814ZM57.1251 35.5001C55.2389 35.5001 53.4337 35.8854 51.7909 36.5849L54.533 43.0254C55.3246 42.6884 56.1983 42.5001 57.1251 42.5001V35.5001ZM70.7498 49.0403C70.7039 41.5542 64.6216 35.5001 57.1251 35.5001V42.5001C60.77 42.5001 63.7276 45.4439 63.7499 49.0832L70.7498 49.0403ZM67.683 52.5349C67.8673 52.5119 68.0564 52.4999 68.2499 52.4999V45.4999C67.7661 45.4999 67.2877 45.53 66.8167 45.5887L67.683 52.5349ZM68.2499 52.4999C70.7352 52.4999 72.7499 54.5146 72.7499 56.9999H79.7499C79.7499 50.6486 74.6012 45.4999 68.2499 45.4999V52.4999ZM72.7499 56.9999C72.7499 59.3409 70.9597 61.2679 68.676 61.4802L69.324 68.4501C75.1735 67.9062 79.7499 62.9895 79.7499 56.9999H72.7499ZM72.5 65.0001V64.9652H65.5V65.0001H72.5ZM31.5 68.5001H69V61.5001H31.5V68.5001ZM28 64.9845V65.0001H35V64.9845H28ZM20.5 56.9999C20.5 63.1111 25.2649 68.1067 31.2846 68.4779L31.7154 61.4911C29.3644 61.3462 27.5 59.3894 27.5 56.9999H20.5ZM32 45.4999C25.6487 45.4999 20.5 50.6486 20.5 56.9999H27.5C27.5 54.5146 29.5147 52.4999 32 52.4999V45.4999ZM33.166 45.5585C32.7816 45.5197 32.3925 45.4999 32 45.4999V52.4999C32.1571 52.4999 32.3112 52.5078 32.4621 52.523L33.166 45.5585ZM28.9999 46.375C28.9999 47.5704 29.1417 48.7373 29.4108 49.858L36.2173 48.2235C36.0757 47.6341 35.9999 47.0157 35.9999 46.375H28.9999ZM43.8749 31.5C35.6597 31.5 28.9999 38.1598 28.9999 46.375H35.9999C35.9999 42.0258 39.5257 38.5 43.8749 38.5V31.5Z" fill="white" mask="url(#path-2-inside-1)"/>
<defs>
<radialGradient id="paint0_diamond" cx="0" cy="0" r="1" gradientUnits="userSpaceOnUse" gradientTransform="translate(8 8) rotate(45) scale(120.208 776.967)">
<stop offset="0.00520833" stop-color="#D61665"/>
<stop offset="1" stop-color="#E074A0"/>
</radialGradient>
</defs>
</svg>
